<?xml version="1.0" encoding="UTF-8" standalone="no"?>
<!-- Created with Inkscape (http://www.inkscape.org/) -->

<svg
   width="512"
   height="512"
   viewBox="0 0 512 512"
   version="1.1"
   id="svg1"
   xml:space="preserve"
   xmlns="http://www.w3.org/2000/svg"
   xmlns:svg="http://www.w3.org/2000/svg"><defs
     id="defs1" /><g
     id="layer1"><path
       style="fill:#000000;stroke-width:0.408758"
       d="m 249.71212,503.09389 c -25.80195,-14.94968 -41.6878,-26.01019 -61.40106,-42.75053 -10.36487,-8.80176 -26.44455,-24.63107 -34.78428,-34.24262 -3.38117,-3.89682 -6.78977,-7.82251 -7.57467,-8.72372 -0.7849,-0.90123 -2.09783,-2.53548 -2.91759,-3.63165 -0.81981,-1.09619 -1.80392,-2.32087 -2.18689,-2.7215 -1.05231,-1.10075 -10.26408,-13.3577 -12.83565,-17.07876 -1.24297,-1.79855 -2.95026,-4.25109 -3.79402,-5.45013 -8.65341,-12.29687 -25.51648,-42.24157 -31.459085,-55.86359 -0.850015,-1.94841 -2.372759,-5.33871 -3.383898,-7.53399 -1.011152,-2.19528 -2.29727,-5.13835 -2.858002,-6.54014 -0.56077,-1.40179 -1.923579,-4.75599 -3.028529,-7.45379 C 67.632927,272.39029 55.734106,223.58679 50.2686,174.85077 48.331528,157.57825 47.796749,151.05043 46.666743,130.88485 46.002751,119.03586 45.904161,65.604556 46.545087,64.963629 c 0.239084,-0.239108 4.35617,-0.170379 9.14902,0.152708 9.908786,0.66796 32.841878,0.314534 42.232523,-0.650856 38.98235,-4.007522 75.53469,-14.674282 111.99971,-32.68391 15.33562,-7.574087 35.72783,-19.130455 42.01725,-23.8114561 2.71135,-2.0179418 5.28954,-1.7017977 9.57689,1.1743423 11.28904,7.5732388 37.49272,21.9014188 51.14038,27.9635628 6.8583,3.046397 10.67908,4.615504 16.89531,6.938555 3.74696,1.400264 8.03892,3.003927 9.53772,3.563701 1.49876,0.559774 4.4418,1.559879 6.54012,2.222446 2.09828,0.662567 4.30558,1.397979 4.90511,1.634248 3.72015,1.466105 15.26036,4.543873 29.43057,7.849088 7.60242,1.773292 21.21022,3.829807 34.88068,5.271434 7.27905,0.767621 39.47041,0.971609 46.10648,0.292169 4.14064,-0.42395 4.14064,-0.42395 4.49352,4.905093 1.16921,17.656755 -0.14261,67.040146 -2.3639,88.988206 -0.2882,2.84766 -0.78975,7.87539 -1.11459,11.1727 -0.65897,6.68954 -2.42026,20.6022 -3.2428,25.61551 -0.29509,1.79855 -1.14044,6.94889 -1.87853,11.44523 -3.49902,21.31513 -9.89968,48.8197 -15.60022,67.03633 -5.15847,16.48434 -12.27479,36.00452 -16.98798,46.59842 -0.60014,1.34891 -1.40461,3.18831 -1.78775,4.08757 -6.67578,15.66971 -21.0561,42.7447 -28.12599,52.95516 -0.86415,1.24801 -1.57118,2.37794 -1.57118,2.51092 0,0.13298 -2.28262,3.64908 -5.07249,7.81356 -16.38182,24.45331 -37.94945,49.0997 -60.06138,68.63505 -2.70059,2.38591 -5.97903,5.19641 -7.28539,6.24556 -1.3064,1.04914 -2.65299,2.1528 -2.99247,2.45255 -0.77571,0.6849 -7.0492,5.69007 -12.06249,9.62376 -4.07896,3.20059 -17.66714,12.62495 -22.61793,15.68719 -9.19122,5.68505 -11.78907,7.24209 -18.05019,10.81869 -8.33572,4.76167 -9.32059,4.86875 -14.92298,1.62273 z m 16.3278,-3.7757 c 9.63247,-5.49963 10.66114,-6.13791 22.09546,-13.71007 19.9292,-13.19776 35.61248,-26.10879 53.70877,-44.21499 17.3796,-17.38916 24.23686,-25.45965 40.38211,-47.52689 4.80699,-6.57024 16.01579,-24.2685 20.62319,-32.56329 0.68385,-1.23119 2.4006,-4.3232 3.81489,-6.87113 4.7636,-8.5816 12.69627,-25.24404 18.1671,-38.15961 8.67977,-20.49127 19.14827,-53.22446 23.96364,-74.93012 0.33248,-1.49879 1.09379,-4.80973 1.69177,-7.35766 0.59797,-2.54792 1.84023,-8.67929 2.76055,-13.62527 3.19627,-17.17701 4.16626,-23.12983 5.74296,-35.2451 4.09768,-31.48584 6.09218,-66.99687 5.57294,-99.223533 -0.17014,-10.559373 -0.42908,-19.392641 -0.57546,-19.629476 -0.14638,-0.236834 -3.41402,-0.225418 -7.26145,0.02544 -8.479,0.552709 -36.07238,0.126276 -43.23852,-0.668231 -18.56449,-2.058211 -28.01722,-3.678832 -43.60088,-7.475141 -32.62081,-7.946694 -65.85044,-21.974692 -98.84546,-41.72796 -4.45562,-2.667471 -9.35746,-5.696 -10.89291,-6.7300455 -3.38844,-2.2818969 -4.88806,-2.3456492 -8.02674,-0.3411877 -11.17263,7.1350592 -12.8395,8.1426832 -14.26375,8.6222632 -0.52454,0.176634 -0.95374,0.537803 -0.95374,0.802606 0,0.264791 -0.21384,0.481448 -0.47515,0.481448 -0.26136,0 -2.89785,1.37849 -5.85889,3.063317 -8.04824,4.579412 -28.50507,14.843764 -35.6276,17.87641 -20.57986,8.762475 -40.98323,15.373775 -61.59044,19.95712 -9.63557,2.143099 -21.59093,4.042838 -32.97312,5.239546 -8.654226,0.909871 -36.517626,1.346822 -47.960978,0.752112 -4.905092,-0.254911 -4.905092,-0.254911 -5.078531,24.25299 -0.211127,29.836352 0.648165,51.098842 2.961816,73.286362 0.453233,4.34645 1.039193,9.98732 1.30219,12.53523 0.492384,4.77141 2.066751,16.30191 3.534688,25.88802 2.121165,13.85185 5.940895,32.39942 10.1578,49.32348 8.554701,34.33325 23.040222,71.91877 39.594025,102.73454 4.8081,8.95047 5.78032,10.62146 12.04995,20.7104 9.09277,14.63193 18.46647,27.79373 28.33498,39.78579 1.97341,2.39805 3.96086,4.8157 4.41651,5.37254 4.19145,5.1221 21.31453,23.11223 26.75976,28.11477 9.55141,8.77495 10.49816,9.61408 16.0346,14.21175 2.69779,2.24038 5.02772,4.19684 5.17761,4.34769 0.32901,0.33117 2.7856,2.23394 10.3567,8.02189 6.71998,5.1373 21.1966,14.83714 29.70158,19.90108 15.03336,8.951 16.39366,9.68455 17.95921,9.68455 1.03746,0 4.74645,-1.78726 10.35882,-4.9916 z m 44.88352,-63.70448 c -0.50596,-0.29511 -3.14977,-3.23071 -5.87517,-6.52355 -2.72538,-3.29283 -5.26672,-5.98698 -5.64747,-5.98698 -0.38072,0 -0.98651,0.29431 -1.34621,0.65402 -0.44522,0.4452 -0.83177,0.47624 -1.21079,0.0974 -0.379,-0.37899 0.8293,-1.63112 3.78437,-3.92171 2.38763,-1.85075 4.47488,-3.14857 4.63834,-2.88408 0.16346,0.26449 -0.068,0.78398 -0.51429,1.1544 -1.49312,1.23916 -0.83878,2.81644 3.26196,7.86298 4.31816,5.3141 6.01435,6.63361 7.79923,6.06712 1.21491,-0.38561 2.84258,-3.35475 2.84258,-5.18538 0,-0.64831 -1.87215,-3.4618 -4.20645,-6.32151 -4.1686,-5.10684 -5.59913,-6.02989 -7.06828,-4.56075 -0.3935,0.39351 -0.70702,0.40719 -0.93352,0.0407 -0.38612,-0.62481 7.72749,-7.47568 8.24305,-6.96014 0.18337,0.18339 0.0221,0.91554 -0.35888,1.62702 -0.89217,1.667 -0.46358,2.48531 4.45974,8.51497 4.34969,5.32708 5.06555,5.86776 6.54537,4.94358 0.58039,-0.36246 1.17208,-0.54218 1.31486,-0.3994 0.3091,0.30907 -1.15601,3.26929 -2.71378,5.48321 -1.11154,1.57974 -1.11154,1.57974 -2.38307,0.10156 -1.36943,-1.59202 -1.48624,-1.48047 -2.0576,1.96475 -0.61622,3.71559 -5.40608,6.07978 -8.57399,4.23197 z m -61.13779,-4.06691 c -2.35759,-1.34668 -4.37514,-2.4485 -4.48338,-2.4485 -0.10825,0 -3.9186,-2.34159 -8.46738,-5.20355 -66.63402,-41.9241 -110.22324,-111.96273 -125.4852,-201.62805 -4.5183,-26.54517 -5.8074,-42.45918 -6.17541,-76.23529 -0.29621,-27.18431 -0.29621,-27.18431 4.49774,-26.78498 9.52009,0.79303 27.25795,0.42307 37.85059,-0.78943 20.05595,-2.29572 42.11786,-8.16203 61.78598,-16.42902 12.18054,-5.119772 30.89001,-14.924009 40.61531,-21.283436 5.37521,-3.514904 6.29806,-3.474291 12.70371,0.559099 29.20863,18.39154 61.44599,30.926137 92.54409,35.983197 12.39612,2.01581 28.28178,2.84607 41.60197,2.1743 5.09962,-0.25717 9.35238,-0.38732 9.45048,-0.2892 0.61674,0.61674 0.77391,28.72129 0.2352,42.05356 -2.39692,59.3187 -13.54073,108.46165 -34.59479,152.55919 -8.74227,18.3106 -24.11783,42.64021 -34.98732,55.36243 -14.38431,16.83617 -26.75371,28.8469 -41.92921,40.71351 -13.21081,10.33027 -35.63197,24.14713 -39.17088,24.13871 -1.01498,-0.002 -3.43961,-0.9949 -5.9915,-2.45254 z m 13.85531,-4.70406 c 36.78251,-21.1022 66.66456,-49.83347 89.76572,-86.30869 16.83798,-26.58612 30.06482,-58.58962 38.29235,-92.65184 7.95543,-32.93576 11.97607,-68.99693 11.97087,-107.36712 -0.003,-20.07064 1.68601,-18.01517 -14.63054,-17.80757 -17.0843,0.21738 -27.49157,-0.70116 -42.86033,-3.78281 -13.52511,-2.71196 -29.92591,-7.77179 -44.69087,-13.7876 -11.35289,-4.6256 -34.03438,-16.539815 -42.77364,-22.468274 -1.04376,-0.708082 -2.31659,-1.28742 -2.82843,-1.28742 -0.51185,0 -3.33666,1.508059 -6.27734,3.351247 -24.94815,15.637057 -54.70908,27.936257 -81.37572,33.629847 -15.65245,3.34197 -27.64926,4.50844 -45.23591,4.3984 -14.44277,-0.0904 -14.44277,-0.0904 -14.39506,24.3647 0.0599,30.63534 1.4145,47.97263 5.74357,73.50607 8.61331,50.80219 25.42014,93.68762 51.36839,131.07509 16.68718,24.04363 40.1863,47.3673 64.37772,63.89698 10.70242,7.31284 23.91651,15.10272 25.64659,15.11902 0.61657,0.006 4.17275,-1.74021 7.90263,-3.88003 z m 13.38193,-89.75384 c -0.1575,-0.25479 -0.34161,-6.57362 -0.40921,-14.04186 -0.18101,-20.00227 -0.56507,-19.43463 13.42925,-19.84623 9.26516,-0.27251 9.26516,-0.27251 9.26516,-5.45012 0,-5.1776 0,-5.1776 -5.17758,-5.1776 -5.17761,0 -5.17761,0 -5.34785,2.06189 -0.17021,2.06189 -0.17021,2.06189 -5.99511,1.90754 -5.82487,-0.15435 -5.82487,-0.15435 -5.98074,-5.45736 -0.18304,-6.22732 0.55272,-8.24691 3.44461,-9.45522 2.71338,-1.13373 25.26386,-1.11567 27.46384,0.022 2.84438,1.47088 3.31151,3.846 3.30252,16.79106 -0.009,12.45815 -0.16939,13.31022 -2.89283,15.33299 -1.38564,1.02917 -2.4267,1.16163 -10.49142,1.33481 -8.95315,0.19227 -8.95315,0.19227 -8.95315,5.30258 0,5.1103 0,5.1103 11.03646,5.25784 11.03648,0.14754 11.03648,0.14754 11.03648,5.87015 0,5.72262 0,5.72262 -16.7221,5.86669 -9.19713,0.0793 -16.85089,-0.0644 -17.00833,-0.31917 z m 38.56706,-0.35189 c -0.16874,-0.4397 2.33024,-7.61341 5.55325,-15.94156 3.22306,-8.32815 6.92502,-17.89577 8.22655,-21.26138 1.30158,-3.36562 2.36651,-6.37001 2.36651,-6.67639 0,-0.35554 -3.06324,-0.55709 -8.46673,-0.55709 -8.46678,0 -8.46678,0 -8.31144,-5.58635 0.15532,-5.58638 0.15532,-5.58638 16.77817,-5.58638 16.31881,0 16.61956,0.0199 16.44482,1.09003 -0.18407,1.12733 -3.82785,10.84886 -12.86958,34.33568 -6.57888,17.0893 -7.31469,18.85378 -8.35233,20.02915 -1.14202,1.29362 -10.88133,1.4258 -11.36922,0.15429 z m -146.0491,-9.2096 c -0.92936,-0.42347 -1.84906,-1.18514 -2.0438,-1.69262 -0.19472,-0.50749 -0.35406,-7.88286 -0.35406,-16.3897 0,-19.66464 -0.80906,-18.45738 12.15798,-18.14166 6.9342,0.16884 7.46245,0.25912 8.7827,1.50092 1.27689,1.201 1.40478,1.70861 1.40478,5.57598 0,4.82789 -0.24048,5.05869 -4.91711,4.72009 -2.17105,-0.15719 -2.41663,-0.32565 -2.83314,-1.9434 -0.44961,-1.74608 -0.50176,-1.77129 -3.66375,-1.77129 -3.20766,0 -3.20766,0 -3.27488,9.22524 -0.0887,12.17493 -0.13175,12.03018 3.57524,12.03018 2.5524,0 2.94743,-0.1432 3.00658,-1.09003 0.0376,-0.5995 0.0988,-1.39658 0.13628,-1.77128 0.0473,-0.47363 1.2308,-0.68126 3.8832,-0.68126 3.81506,0 3.81506,0 3.97267,4.13707 0.12995,3.41073 -0.0244,4.36222 -0.88082,5.41949 -0.99264,1.22586 -1.39629,1.29036 -9.1503,1.46232 -6.13942,0.13614 -8.52273,-0.008 -9.80157,-0.59005 z m 85.7516,0.25522 c -1.1274,-0.23745 -2.23105,-0.61282 -2.45255,-0.83418 -0.22151,-0.22136 -0.40271,-2.02858 -0.40271,-4.01607 0,-3.6136 0,-3.6136 2.72502,-3.63368 2.43706,-0.018 2.74388,0.11268 2.90308,1.2355 0.15791,1.11397 0.43447,1.2369 2.45256,1.09002 2.11675,-0.15407 2.28617,-0.28591 2.4426,-1.90063 0.23223,-2.3972 -1.25635,-3.13099 -5.40038,-2.66215 -2.77775,0.31426 -3.30893,0.21605 -4.32458,-0.79959 -1.07887,-1.07884 -1.14559,-1.62285 -0.97807,-7.97203 0.23061,-8.74267 0.006,-8.53132 8.76626,-8.23995 3.88942,0.12935 6.65707,0.46366 7.04426,0.85084 0.35079,0.35078 0.65328,2.17677 0.6722,4.05774 0.0342,3.41996 0.0342,3.41996 -2.82044,3.58469 -2.56919,0.14826 -2.85481,0.0529 -2.85481,-0.95376 0,-0.9623 -0.34253,-1.11851 -2.45254,-1.11851 -2.45255,0 -2.45255,0 -2.45255,2.12412 0,2.12411 0,2.12411 4.67652,2.31629 6.03069,0.24783 6.08358,0.31886 6.18581,8.30608 0.10586,8.26649 -0.12564,8.56637 -6.80294,8.81523 -2.68232,0.0999 -5.79935,-0.0125 -6.92674,-0.24996 z M 193.30351,309.4569 c 0,-18.26937 0,-18.26937 10.76395,-18.12159 10.76398,0.14776 10.76398,0.14776 10.9288,3.32756 0.23982,4.62642 0.0793,4.72286 -7.86172,4.72286 -6.7459,0 -6.7459,0 -6.7459,3.27007 0,3.27005 0,3.27005 5.45014,3.27005 5.45009,0 5.45009,0 5.45009,3.52341 0,4.35568 -0.41572,4.65176 -6.53152,4.65176 -4.42307,0 -4.42307,0 -4.25966,3.13381 0.16347,3.13382 0.16347,3.13382 7.38487,3.28589 7.22137,0.15207 7.22137,0.15207 7.22137,3.67882 0,3.52674 0,3.52674 -10.90019,3.52674 -10.90023,0 -10.90023,0 -10.90023,-18.26938 z m 32.15565,4.12512 c 0,-14.14427 0,-14.14427 -3.40634,-14.30653 -3.40631,-0.16226 -3.40631,-0.16226 -3.40631,-3.97734 0,-3.81508 0,-3.81508 11.03647,-3.96261 11.03646,-0.14754 11.03646,-0.14754 11.03646,3.95132 0,4.09887 0,4.09887 -3.54258,4.09887 -3.54255,0 -3.54255,0 -3.54255,14.17029 0,14.17026 0,14.17026 -4.08757,14.17026 -4.08758,0 -4.08758,0 -4.08758,-14.14426 z m 17.56723,0.38274 c 0.14561,-13.7615 0.14561,-13.7615 2.59815,-13.7615 2.45254,0 2.45254,0 2.59815,13.7615 0.14565,13.76152 0.14565,13.76152 -2.59815,13.76152 -2.74379,0 -2.74379,0 -2.59815,-13.76152 z m 39.6589,-34.73677 c -0.44964,-0.29479 -2.07511,-0.53974 -3.61212,-0.54431 -1.73591,-0.005 -3.03707,-0.30055 -3.43471,-0.77969 -0.48214,-0.58095 -1.06944,-0.64821 -2.37942,-0.2725 -3.28634,0.94251 -3.65401,0.74592 -3.65401,-1.95372 0,-2.06436 -0.16747,-2.45256 -1.05787,-2.45256 -1.63809,0 -1.70901,-0.67419 -0.37638,-3.57979 0.84012,-1.83185 1.10854,-3.12175 0.84278,-4.05036 -1.18353,-4.13575 0.15005,-11.9861 2.75441,-16.21407 0.8852,-1.43708 1.44071,-1.77128 2.94396,-1.77128 1.39456,0 2.08278,-0.35093 2.7825,-1.41879 0.92959,-1.41879 0.92959,-1.41879 -1.43613,-0.98558 -5.1842,0.94931 -9.62102,-0.38548 -11.89461,-3.57841 -1.31343,-1.84455 -2.94747,-2.1162 -4.46556,-0.74237 -0.55,0.49776 -1.1605,0.74452 -1.35668,0.54836 -0.52321,-0.52323 1.29462,-2.3454 3.07591,-3.08323 0.84907,-0.35169 1.66676,-1.10986 1.81709,-1.68482 0.35795,-1.36875 1.49009,-1.34148 1.85257,0.0446 0.43219,1.65278 1.24794,1.30333 1.24794,-0.53461 0,-1.2465 -0.28543,-1.68358 -1.22627,-1.8778 -6.02137,-1.24295 -15.12368,-1.52798 -15.12392,-0.47358 -2.2e-4,0.88358 3.26467,1.44252 6.57062,1.12486 3.91872,-0.37655 3.45503,1.36861 -0.95735,3.60295 -2.31129,1.1704 -3.39008,1.11389 -4.846,-0.25384 -0.83803,-0.78731 -2.2111,-1.22782 -4.46372,-1.43207 -3.25334,-0.29501 -3.25334,-0.29501 -3.51777,1.81834 -0.31928,2.55193 0.0298,3.05306 3.1483,4.5189 3.03339,1.42588 3.06825,1.4229 2.65455,-0.22552 -0.3371,-1.34317 -0.29414,-1.36252 3.02301,-1.36252 4.0378,0 5.47336,0.65135 5.47336,2.4834 0,0.9119 0.43999,1.55552 1.34542,1.96806 1.90575,0.86831 1.27256,1.4105 -2.14597,1.83762 -2.96342,0.37026 -2.96342,0.37026 -2.62898,2.08193 0.18398,0.94143 0.69121,2.2635 1.12716,2.93796 0.70469,1.09011 0.69636,1.22627 -0.075,1.22627 -0.47722,0 -1.26211,0.60204 -1.74424,1.33788 -0.82868,1.26472 -0.80317,1.4361 0.46663,3.13382 1.40993,1.8851 5.85607,9.57323 7.61575,13.16882 1.47671,3.01751 1.57731,4.11523 0.53824,5.87424 -1.55859,2.63847 -4.08553,1.82384 -8.56618,-2.76159 -1.91753,-1.96237 -3.12855,-2.76782 -4.16152,-2.76782 -0.80133,0 -2.15947,-0.36484 -3.01807,-0.81075 -0.99046,-0.51441 -1.63082,-0.60392 -1.75194,-0.24486 -0.10511,0.31125 -1.14734,1.16968 -2.3163,1.90762 -1.16898,0.73794 -2.12543,1.70651 -2.12543,2.15239 0,1.84883 -1.46351,0.5823 -2.90401,-2.51315 -0.84785,-1.82186 -1.66304,-3.191 -1.8115,-3.04252 -0.14847,0.14846 0.11601,1.01632 0.58776,1.92856 1.88212,3.63961 0.50007,5.85902 -4.02665,6.46616 -2.13154,0.2859 -2.20054,0.24579 -2.19244,-1.27533 0.005,-0.86381 0.23581,-1.9302 0.51384,-2.36979 0.30808,-0.48715 0.30955,-1.03528 0.003,-1.40375 -0.27595,-0.33248 -0.64191,-1.4867 -0.81326,-2.56493 -0.24293,-1.52862 -0.0956,-2.0861 0.66914,-2.53101 0.91308,-0.53128 0.90368,-0.57173 -0.13661,-0.58716 -1.37241,-0.0204 -2.42528,-1.00732 -2.42528,-2.27345 0,-0.52187 -0.28695,-1.12619 -0.63763,-1.34293 -0.44705,-0.2763 -0.51466,-0.0824 -0.22616,0.64909 0.22633,0.57375 0.54197,1.81944 0.70143,2.7682 0.25171,1.49742 0.11981,1.75116 -1.00011,1.92313 -1.23588,0.18979 -1.21565,0.23813 0.48119,1.15029 1.11432,0.59902 1.77126,1.36732 1.77126,2.0715 0,0.96015 -0.23245,1.06826 -1.63503,0.76022 -1.48689,-0.32659 -1.63502,-0.23179 -1.63502,1.04671 0,1.83876 -0.60104,1.77366 -2.61168,-0.28287 -1.35439,-1.38527 -2.25623,-1.76006 -5.0191,-2.08583 -3.70111,-0.43639 -3.22078,-0.77577 -4.86688,3.43866 -0.37904,0.97048 -1.19978,1.46524 -3.2442,1.95568 -1.5052,0.3611 -2.97669,0.50824 -3.26998,0.32699 -0.29327,-0.18125 -0.68065,-0.0909 -0.86084,0.20055 -0.42085,0.68099 -1.92869,0.13746 -3.17524,-1.14458 -1.0463,-1.07607 -1.72466,-1.22135 -4.83957,-1.03642 -1.89564,0.11256 -2.05833,-0.0144 -3.13378,-2.44565 -1.27577,-2.8841 -1.43404,-4.63314 -0.50343,-5.56376 0.97335,-0.97336 -0.44493,-2.3796 -2.00504,-1.98803 -1.48255,0.37211 -3.288,-0.48678 -4.06154,-1.93215 -0.73421,-1.37189 -0.13267,-2.86302 1.00882,-2.50074 0.70396,0.22343 0.89317,-0.0921 0.88925,-1.48253 -0.003,-1.3778 0.20376,-1.73135 0.94394,-1.6073 0.81646,0.13682 0.87083,-0.0464 0.38947,-1.31255 -0.48306,-1.2706 -0.35685,-1.68311 0.92433,-3.02034 2.20966,-2.30641 0.5931,-1.87435 -3.38154,0.90378 -3.55926,2.4878 -4.86515,3.00368 -4.48384,1.77129 0.24777,-0.8006 3.04129,-2.69831 17.33933,-11.77896 7.71813,-4.90177 11.06063,-7.35209 12.26703,-8.99268 0.91206,-1.24028 1.99536,-2.25506 2.40739,-2.25506 0.41201,0 0.79048,-0.56156 0.84105,-1.24791 0.0505,-0.68635 0.99725,-2.17505 2.10375,-3.30821 2.01188,-2.06031 2.01188,-2.06031 -0.42956,-9.65231 -1.34277,-4.17561 -2.66015,-8.99541 -2.92749,-10.71069 -0.47002,-3.01568 -0.42513,-3.20438 1.35814,-5.71261 1.8442,-2.59392 1.8442,-2.59392 0.0843,-3.18648 -1.801,-0.6064 -2.78144,-1.88 -1.44726,-1.88 0.40799,0 1.14775,-0.47413 1.6439,-1.0536 0.77837,-0.90903 0.795,-1.14253 0.12117,-1.70177 -0.42957,-0.35649 -0.78101,-0.95692 -0.78101,-1.33427 0,-0.37734 -0.85838,-1.34081 -1.90754,-2.14103 -2.25154,-1.71736 -2.42059,-2.48949 -0.54501,-2.48949 1.85323,0 1.71433,-0.88013 -0.30359,-1.92362 -1.6661,-0.86158 -1.6661,-0.86158 -1.28991,-7.50789 0.38022,-6.71799 1.14105,-10.35473 2.13851,-10.222 0.29977,0.04 0.46131,0.9504 0.35897,2.0233 -0.11417,1.19725 0.0234,1.82129 0.35631,1.61558 0.29826,-0.18436 0.71851,-2.91989 0.93384,-6.07897 0.37712,-5.53295 0.33825,-5.84638 -1.05872,-8.53895 -1.12821,-2.17461 -1.29422,-2.8941 -0.74779,-3.24081 0.38633,-0.24511 0.8859,-0.44939 1.11015,-0.45399 0.22429,-0.005 1.08268,-1.07833 1.90756,-2.3861 0.82487,-1.30776 3.0326,-3.64664 4.90607,-5.19747 1.8735,-1.55085 3.40634,-3.07268 3.40634,-3.38184 0,-1.0714 -8.67298,7.31251 -9.2363,8.92848 -0.50268,1.44191 -0.67318,1.54154 -1.52371,0.89029 -0.52674,-0.40332 -1.03862,-0.78144 -1.13755,-0.84025 -1.13385,-0.67435 13.86451,-15.73123 18.93806,-19.01192 6.31281,-4.08201 17.94444,-7.34317 26.20515,-7.34716 3.40311,-0.001 11.46476,1.30907 12.92648,2.10166 0.53421,0.28966 1.70706,1.30023 2.60632,2.24571 0.89927,0.94546 2.86131,2.42407 4.3601,3.28578 6.71628,3.86146 12.60144,12.70126 16.81894,25.26281 1.75103,5.21539 1.78213,6.83325 0.23286,12.09925 -1.20605,4.09935 -1.20605,4.09935 0.37659,5.36129 1.58263,1.26195 1.58263,1.26195 0.7221,3.92807 -0.54797,1.69788 -0.67531,2.8957 -0.35058,3.29828 0.34176,0.4237 0.12647,0.90074 -0.65282,1.44659 -1.13199,0.79286 -1.13709,0.85367 -0.19255,2.29521 0.91036,1.38939 0.91318,1.52256 0.0455,2.15706 -0.86231,0.63053 -0.85107,0.77001 0.16654,2.06368 1.40477,1.78588 1.39291,1.84908 -0.53446,2.84576 -1.62032,0.83791 -3.27931,3.29742 -3.27931,4.8618 0,0.51155 0.87758,1.05061 2.31631,1.42286 4.57193,1.1829 10.88858,3.54229 11.13453,4.15896 0.13788,0.34578 -1.85928,4.02459 -4.43816,8.17517 -2.57887,4.15057 -5.46812,9.11593 -6.42058,11.03412 -1.73174,3.48763 -1.73174,3.48763 0.60976,5.56552 1.28783,1.14284 3.97598,2.98665 5.97371,4.09734 1.99772,1.1107 5.22638,3.04758 7.17476,4.3042 1.94843,1.25661 7.22142,4.316 11.71774,6.79863 9.41828,5.20025 13.1276,7.55726 14.95606,9.50357 1.19406,1.271 1.24683,1.55478 0.65605,3.52662 -0.35336,1.17942 -1.68073,3.28677 -2.94967,4.683 -2.1372,2.3515 -2.41818,2.49603 -3.8127,1.96117 -0.82802,-0.31758 -1.79931,-1.22236 -2.15849,-2.01061 -0.55174,-1.21097 -0.50846,-1.53885 0.27923,-2.11481 0.5127,-0.37491 0.93216,-1.33196 0.93216,-2.12678 0,-1.38076 -0.097,-1.4296 -2.18003,-1.09654 -1.49007,0.23829 -2.18002,0.14866 -2.18002,-0.28316 0,-0.34748 0.36788,-0.77294 0.81751,-0.94548 0.44964,-0.17255 0.81753,-0.53273 0.81753,-0.80042 0,-0.9718 -2.21173,-2.66674 -3.47981,-2.66674 -1.16373,0 -1.33819,0.30787 -1.66732,2.94233 -0.44383,3.55238 -1.78203,5.13487 -3.45735,4.08858 -1.38382,-0.86421 -2.84075,-3.32862 -2.84075,-4.80515 0,-1.03174 -0.21832,-1.11371 -2.14554,-0.80553 -2.14553,0.34307 -2.14553,0.34307 -3.85597,-3.39987 -1.40515,-3.07488 -1.65413,-4.18284 -1.3948,-6.20728 0.31567,-2.46429 0.31567,-2.46429 -3.27699,-4.28929 -2.05674,-1.04479 -3.98489,-2.46999 -4.51015,-3.33369 -0.9175,-1.50871 -0.9175,-1.50871 -2.49534,-0.25055 -1.57789,1.25816 -1.57789,1.25816 -0.66975,3.63618 0.4995,1.3079 0.91598,3.10558 0.92551,3.99482 0.0212,1.97295 1.28007,3.79734 2.21964,3.21668 0.4755,-0.29391 0.32549,-0.54595 -0.50874,-0.85454 -0.82942,-0.30681 -1.1807,-0.89112 -1.17486,-1.95404 0.0136,-2.46246 0.58253,-2.92883 2.81962,-2.31113 3.02811,0.83609 4.75831,5.36628 2.95613,7.74005 -0.81338,1.07135 -5.09573,2.74536 -5.84245,2.28387 -0.26799,-0.16563 -0.76397,-1.40014 -1.10222,-2.74334 -0.33984,-1.3496 -0.88832,-2.35321 -1.22599,-2.2433 -0.78269,0.25482 -1.72319,7.04447 -1.16005,8.37489 0.38128,0.90086 0.46439,0.86317 0.78264,-0.35464 0.22098,-0.84541 0.81302,-1.42862 1.56003,-1.53669 1.05173,-0.15213 1.20391,0.0746 1.20391,1.79336 0,1.12445 0.4756,2.61075 1.1099,3.46869 1.35847,1.83746 2.69,6.64556 2.69875,9.74517 0.003,1.26379 -0.41555,3.18276 -0.93135,4.26437 -0.81225,1.70331 -1.12233,1.91822 -2.31627,1.60529 -4.20923,-1.10318 -5.68829,-0.94742 -7.92402,0.83457 -2.09537,1.67012 -2.18117,1.69053 -2.35277,0.55948 -0.098,-0.64561 0.0479,-1.46692 0.32418,-1.82512 1.15634,-1.49945 1.20159,-2.55879 0.10937,-2.55879 -0.86911,0 -1.08081,0.38824 -1.11437,2.04379 -0.0538,2.65585 -1.20897,5.82209 -2.18685,5.99443 -0.42306,0.0746 -1.13713,-0.10553 -1.58675,-0.40042 z m -25.43763,-8.61318 c -1.14698,-2.03525 -5.27376,-9.26413 -9.17058,-16.06417 -6.5241,-11.38471 -7.1067,-12.22455 -7.35764,-10.6061 -0.23954,1.54497 -0.45384,1.73642 -1.77127,1.58236 -0.82435,-0.0964 -1.49879,0.0682 -1.49879,0.36561 0,0.77757 5.16086,9.00265 8.25879,13.16243 1.45109,1.94841 3.86661,4.59964 5.36789,5.89164 1.50125,1.29201 3.13244,3.1314 3.62491,4.08758 1.23339,2.39493 3.4796,5.28107 4.11014,5.28107 0.28708,0 -0.41648,-1.66519 -1.56345,-3.70042 z m -10.38818,-4.84309 c 0.6229,-0.3756 -1.20311,-3.19443 -3.56052,-5.4964 -1.70887,-1.66863 -2.16819,-1.88592 -2.57956,-1.22031 -0.36564,0.59162 -0.20359,0.91965 0.60141,1.21745 0.96459,0.35683 1.05611,0.71311 0.73441,2.85842 -0.54397,3.62738 -0.19656,4.14723 2.31235,3.46042 1.14096,-0.31235 2.26231,-0.68116 2.49191,-0.81958 z m -34.77738,-1.40293 c -3.85586,-3.39554 -4.48122,-3.84865 -8.96839,-6.49829 -4.08758,-2.41367 -4.08758,-2.41367 -4.14102,-0.97853 -0.0446,1.20012 0.145,1.3972 1.15802,1.20355 0.7407,-0.1416 1.60855,0.19144 2.23345,0.8571 0.56212,0.59878 1.6352,1.17356 2.38457,1.27732 1.131,0.15658 1.34306,0.45804 1.24799,1.77416 -0.0869,1.20298 0.038,1.43297 0.51773,0.95322 0.87936,-0.87935 1.50435,-0.78904 1.50435,0.21736 0,0.48462 0.26034,0.68878 0.60595,0.47519 0.33325,-0.20599 0.78403,-0.0864 1.00165,0.26579 0.39706,0.64247 3.69096,2.57751 4.60049,2.70264 0.26705,0.0367 -0.69815,-0.97554 -2.14479,-2.24951 z m 5.2019,-6.06781 c 0,-0.41468 -0.46015,-0.87428 -1.02255,-1.02134 -0.93753,-0.24517 -1.01128,-0.80538 -0.88722,-6.73995 0.13527,-6.47256 0.13527,-6.47256 -0.5481,-2.33327 -0.79761,4.83122 -1.6999,6.90876 -2.60673,6.00193 -0.76536,-0.76535 -1.65543,-0.79052 -1.18764,-0.0336 0.37597,0.60834 5.65312,4.88015 6.02865,4.88015 0.12295,0 0.22359,-0.33927 0.22359,-0.75394 z m 9.76277,-6.82881 c -0.93879,-2.45845 -1.83569,-4.34109 -1.99309,-4.18367 -0.15747,0.15745 0.0155,1.01508 0.38459,1.90587 0.36899,0.89079 0.52602,1.85397 0.349,2.1404 -0.17704,0.28644 0.0446,0.66143 0.4925,0.83331 0.44793,0.17187 0.81442,0.70421 0.81442,1.18296 0,1.03314 1.074,3.1765 1.41892,2.83161 0.13232,-0.13232 -0.52754,-2.25203 -1.46634,-4.71048 z m -5.42928,-3.36711 c -0.6362,-1.18878 0.68376,-2.37071 2.20373,-1.97324 0.65987,0.17257 1.0929,0.0181 1.0929,-0.38984 0,-1.21615 -0.60124,-1.31799 -2.35788,-0.39934 -0.95135,0.4975 -1.80683,0.94079 -1.9011,0.9851 -0.0942,0.0444 0,0.98827 0.20704,2.0977 0.24972,1.33107 0.52677,1.77708 0.81461,1.31134 0.23995,-0.38821 0.21325,-1.12248 -0.0593,-1.63172 z m 60.51053,-7.85301 c 0.96946,-2.3466 0.9285,-9.53768 -0.0543,-9.53768 -0.2852,0 -1.98435,1.42546 -3.77591,3.16769 -3.09618,3.01096 -3.22928,3.2483 -2.68947,4.79676 0.31238,0.89601 1.29667,2.0596 2.18739,2.58576 0.89073,0.52615 1.6195,1.3407 1.6195,1.81008 0,1.42973 1.67686,-0.31499 2.71281,-2.82261 z m -62.66399,0.81752 c 0,-0.60556 -0.36336,-1.09002 -0.81752,-1.09002 -0.44964,0 -0.82623,-0.42919 -0.83686,-0.95377 -0.0111,-0.52457 -0.34119,-1.53437 -0.73464,-2.24399 -0.64834,-1.16935 -0.75069,-1.19807 -1.09283,-0.30655 -0.2414,0.62912 -0.0748,1.15305 0.46218,1.45356 0.46178,0.25844 0.83964,1.15259 0.83964,1.987 0,0.83441 0.16351,1.68061 0.36334,1.88045 0.75024,0.75025 1.81669,0.32367 1.81669,-0.72668 z m 31.17623,-10.93235 c 0.68854,-0.31744 1.98765,-1.66581 2.88692,-2.99637 0.89927,-1.33058 1.79498,-2.41975 1.9905,-2.42042 0.1955,-8.1e-4 0.61064,0.67327 0.92252,1.4976 0.31188,0.82433 1.01033,2.04295 1.55209,2.70807 0.91828,1.12732 1.2199,1.17571 4.45097,0.71422 2.16266,-0.30889 4.27116,-1.02793 5.60734,-1.91217 2.41907,-1.60086 8.48864,-9.46688 10.60928,-13.74935 1.66332,-3.35897 2.39405,-10.7377 1.6549,-16.71076 -0.36572,-2.95509 -0.27293,-4.34835 0.44067,-6.61712 0.8245,-2.62124 0.8293,-3.05258 0.0543,-4.90722 -1.05537,-2.52581 -1.06171,-2.99027 -0.0409,-2.99027 0.66934,0 0.62499,-0.35255 -0.25711,-2.04492 -0.72469,-1.39032 -1.02717,-2.93362 -0.94501,-4.82124 0.0755,-1.73254 -0.16449,-3.12015 -0.63808,-3.69087 -1.01057,-1.21779 -1.39832,-0.73806 -0.6036,0.74682 0.98936,1.84867 0.15234,1.98492 -1.64073,0.26707 -1.9044,-1.82455 -2.01844,-2.87095 -0.57205,-5.24936 0.97329,-1.6005 0.99129,-1.86621 0.22612,-3.34586 -0.55509,-1.0734 -0.64979,-1.78864 -0.28519,-2.15326 0.9061,-0.90609 -2.83366,-4.23387 -4.75802,-4.23387 -1.1733,0 -1.93481,-0.44762 -2.7794,-1.63374 -1.47099,-2.06581 -3.70713,-2.7229 -4.69041,-1.37822 -0.51507,0.70445 -1.18895,0.89031 -2.50397,0.69063 -0.9896,-0.15028 -2.24342,-0.0407 -2.78637,0.24356 -0.81294,0.4256 -1.09851,0.22172 -1.61827,-1.15527 -0.7379,-1.955 -2.49209,-2.25317 -3.52501,-0.59917 -0.94355,1.51084 -3.24195,2.5794 -6.41199,2.98102 -5.5565,0.70396 -8.98553,1.55412 -8.98553,2.22781 0,1.41038 -2.11544,3.21342 -4.42292,3.7698 -2.22524,0.53653 -2.50994,0.81998 -4.13692,4.11876 -1.051,2.13101 -1.64197,4.03953 -1.48314,4.78978 0.14524,0.68596 -0.16003,2.14094 -0.67836,3.2333 -1.14842,2.42001 -1.25712,6.72396 -0.24678,9.76874 0.5934,1.78835 0.62507,2.96577 0.15202,5.65135 -0.49627,2.81734 -0.44335,3.94695 0.31208,6.66416 0.85255,3.06638 0.85157,3.37304 -0.0159,4.88427 -0.50898,0.88685 -0.92542,2.52454 -0.92542,3.63932 0,1.1148 -0.30658,2.35192 -0.68125,2.7492 -0.5584,0.59206 -0.41386,0.67503 0.80169,0.46011 1.40095,-0.24771 1.622,0.0236 3.99775,4.90722 2.0648,4.24449 3.31094,5.96838 6.9647,9.63485 5.92593,5.94658 9.72505,7.77537 13.0082,6.2618 z m 0.23289,-9.36929 c -0.18075,-0.67446 -0.33198,-1.7781 -0.33607,-2.45255 -0.003,-0.67446 -0.2527,-1.22629 -0.55244,-1.22629 -0.29979,0 -0.54505,0.36789 -0.54505,0.81753 0,1.01953 -0.21107,1.01819 -2.20707,-0.014 -0.88438,-0.45733 -1.60798,-1.15509 -1.60798,-1.55057 0,-0.39548 -0.49051,-1.16294 -1.09003,-1.70549 -1.42383,-1.28855 -1.37947,-1.90832 0.13627,-1.90425 0.67446,10e-4 2.50966,-0.55001 4.07827,-1.22628 2.6055,-1.1233 2.8528,-1.38412 2.8613,-3.01796 0.006,-1.22975 -0.28862,-1.88316 -0.94447,-2.09179 -0.52456,-0.16687 -1.88393,-0.79389 -3.02084,-1.39338 -2.06707,-1.08996 -2.06707,-1.08996 -4.48417,1.13804 -4.47423,4.12423 -4.61393,2.13981 -0.36106,-5.12966 2.34313,-4.00512 2.56663,-4.70394 2.74547,-8.58392 0.19469,-4.22383 0.19469,-4.22383 -3.49468,-4.22383 -2.04382,0 -4.98485,-0.42538 -6.59388,-0.95377 -2.37589,-0.78017 -2.90529,-1.17941 -2.90852,-2.19353 -0.003,-0.83585 0.45806,-1.4154 1.41402,-1.77886 0.96897,-0.36842 1.31412,-0.80965 1.08999,-1.39361 -0.18034,-0.46998 -0.3279,-1.07971 -0.3279,-1.35496 0,-0.88087 -1.43371,-0.53621 -2.45254,0.58959 -1.15622,1.27764 -2.45255,1.43169 -2.45255,0.29147 0,-1.61474 3.28968,-4.57047 6.14093,-5.51749 3.90266,-1.29625 5.65234,-1.10529 10.44912,1.14048 2.28685,1.07066 4.36689,1.81746 4.62237,1.65957 0.66791,-0.41279 1.84247,1.174 1.3995,1.8907 -0.20479,0.33137 -0.9617,0.82656 -1.68196,1.10041 -1.02393,0.3893 -1.30959,0.8971 -1.30959,2.3281 0,1.0066 -0.18392,2.01553 -0.40874,2.24208 -0.22482,0.22653 -0.40876,2.58218 -0.40876,5.23477 0,4.70972 -0.0419,4.86619 -1.7846,6.66756 -1.72536,1.78338 -1.75104,1.87507 -0.77235,2.76075 2.681,2.42629 8.85452,3.11853 10.4685,1.17383 0.4769,-0.57464 1.25841,-0.70421 2.7798,-0.46093 1.88561,0.30151 2.11644,0.21546 2.11644,-0.78909 0,-0.62013 -0.24527,-1.27908 -0.54504,-1.46434 -0.29976,-0.18527 -0.54501,-0.69025 -0.54501,-1.1222 0,-1.2747 1.98133,-0.89731 2.93567,0.55918 0.48448,0.73948 1.62938,2.11018 2.54419,3.04597 1.40159,1.43382 1.63723,2.05751 1.49802,3.96465 -0.12252,1.67759 -0.42202,2.3119 -1.15766,2.45152 -0.60725,0.11526 -1.09625,-0.2002 -1.26002,-0.81282 -0.22688,-0.84855 -0.91469,-1.02003 -4.51222,-1.12491 -4.06329,-0.11846 -4.27127,-0.065 -4.87129,1.25191 -0.34474,0.75662 -0.62679,2.00793 -0.62679,2.78068 0,1.2478 -0.17057,1.37089 -1.52446,1.10012 -1.82889,-0.36578 -3.4455,0.363 -2.01922,0.91031 1.18004,0.45282 5.72372,0.45257 5.72372,-3.3e-4 0,-0.19177 -0.4292,-0.67449 -0.95376,-1.07269 -0.87389,-0.66335 -0.83893,-0.72546 0.41682,-0.74134 0.75382,-0.01 2.31985,0.49143 3.48004,1.11327 1.30606,0.69999 2.60032,1.0074 3.39826,0.80713 0.92132,-0.23126 1.2888,-0.0929 1.2888,0.48526 0,1.40518 -1.86173,1.90035 -5.87868,1.56359 -3.78444,-0.31728 -3.89771,-0.28917 -5.56823,1.38131 -0.93781,0.93785 -1.55777,1.94366 -1.37762,2.2351 0.66532,1.07652 4.16512,1.29008 6.09102,0.37168 2.30147,-1.0975 2.91842,-1.11687 2.91842,-0.0916 0,0.43882 -0.91535,1.41983 -2.03403,2.18003 -2.81299,1.91148 -7.48273,2.00275 -7.97766,0.15591 z m -5.10424,-35.79484 c 0.54721,-0.57486 0.41825,-0.62102 -0.68936,-0.2467 -2.12812,0.71915 -4.78218,0.48726 -5.88919,-0.51455 -1.2376,-1.12002 -2.61217,-1.1798 -3.0146,-0.13111 -0.19205,0.50058 0.22855,0.98625 1.168,1.3486 1.93546,0.74655 7.57068,0.4414 8.42515,-0.45624 z m 10.38499,10.52832 c -0.18516,-0.48251 -0.32153,-1.52483 -0.303,-2.31629 0.0184,-0.79146 0.0478,-4.16065 0.065,-7.48708 0.0311,-6.04808 0.0311,-6.04808 4.38655,-8.03893 5.61724,-2.5677 9.5275,-2.73861 12.67964,-0.55418 2.17296,1.50586 2.6336,2.37843 1.25558,2.37843 -1.14239,0 -1.05541,2.64886 0.12999,3.95871 0.90891,1.00431 0.87523,1.11157 -0.82611,2.63171 -1.80728,1.6148 -3.81097,2.03726 -4.82985,1.01838 -0.39178,-0.39181 -1.31983,-0.36483 -3.01115,0.0874 -2.09202,0.55955 -2.71284,0.52015 -4.30278,-0.27302 -1.76232,-0.87916 -1.89534,-0.87666 -2.58238,0.0488 -0.74909,1.00897 -0.66226,5.78649 0.14895,8.19704 0.35901,1.06685 0.22507,1.22627 -1.03052,1.22627 -0.82376,0 -1.5877,-0.37652 -1.77985,-0.87728 z m 14.46872,-12.44202 c 0.71791,-0.7179 0.70373,-0.85206 -0.12364,-1.16956 -0.5427,-0.20826 -1.34394,0.0123 -1.91094,0.52499 -1.14514,1.03631 -5.00378,1.18499 -5.95916,0.22961 -0.50865,-0.50869 -0.65402,-0.50479 -0.65402,0.0175 0,1.77859 6.94735,2.09785 8.64776,0.39741 z m 13.69771,46.22114 c 0,-0.70354 0.37992,-0.82716 1.82269,-0.59302 1.82272,0.29577 1.82272,0.29577 0.958,-2.245 -0.47564,-1.39743 -0.88284,-2.59782 -0.90491,-2.66755 -0.0221,-0.0697 -0.82593,0.16984 -1.7864,0.53235 -1.09898,0.41483 -1.64116,0.93284 -1.46282,1.39763 0.15586,0.40618 0.28339,1.57682 0.28339,2.60146 0,1.02463 0.24526,1.86296 0.545,1.86296 0.29978,0 0.54505,-0.39998 0.54505,-0.88883 z m -56.06579,-7.07963 c 0.90571,-0.26356 1.62832,-0.66314 1.60576,-0.88796 -0.0225,-0.22482 -0.041,-1.15567 -0.041,-2.06857 0,-1.1137 -0.49314,-2.11265 -1.49876,-3.03615 -0.82434,-0.75699 -1.9893,-1.8329 -2.58882,-2.39091 -1.94753,-1.81271 -2.68935,-1.59856 -2.51661,0.72652 0.14438,1.94331 0.0791,2.04666 -0.94615,1.49794 -1.09911,-0.5882 -1.09932,-0.58228 -0.10693,2.99632 0.61778,2.22802 1.58502,4.20496 2.55448,5.22129 1.56028,1.63562 1.56028,1.63562 1.72577,0.0281 0.12941,-1.25644 0.52514,-1.71209 1.81237,-2.08665 z m 65.18512,-5.24805 c 0.29297,-0.37469 0.80453,-1.48919 1.13681,-2.47665 0.33228,-0.98747 1.10364,-2.49686 1.71412,-3.3542 0.61049,-0.85735 1.10998,-1.79271 1.10998,-2.07856 0,-0.28587 -1.22627,-1.15597 -2.72505,-1.93357 -2.87889,-1.49362 -3.06067,-1.47639 -2.16086,0.20487 0.49859,0.93164 0.37703,1.05419 -1.04546,1.05419 -2.15869,0 -3.33382,0.50084 -3.33382,1.42083 0,0.46202 -0.5777,0.75921 -1.47583,0.75921 -1.68431,0 -5.6093,3.46514 -5.6093,4.95215 0,0.97193 1.79147,1.70288 3.01905,1.2318 0.4036,-0.15488 0.80917,-1.05781 0.90119,-2.00651 0.14384,-1.48289 0.35848,-1.70287 1.52986,-1.56798 0.76323,0.0879 2.20153,1.098 3.27006,2.29654 2.02732,2.27398 2.81202,2.59429 3.66925,1.49788 z m -71.88933,-7.63015 c -0.0512,-0.97421 0.0982,-2.44574 0.33191,-3.27007 0.46814,-1.65088 0.11441,-1.81304 -2.11022,-0.96725 -1.50165,0.57093 -1.93106,2.19353 -0.58051,2.19353 0.9607,0 1.05844,0.63111 0.22657,1.46296 -0.42458,0.42458 -0.23701,0.83883 0.66628,1.47152 1.62592,1.13882 1.57428,1.1702 1.46597,-0.89069 z m 69.85511,-25.75176 c 0.37316,-0.44964 1.03082,-0.81751 1.46144,-0.81751 0.43062,0 0.63136,-0.24526 0.44611,-0.54503 -0.18528,-0.29975 -0.95975,-0.54499 -1.7211,-0.54499 -2.28832,0 -4.82356,-1.54282 -6.07077,-3.69428 -0.64668,-1.1156 -1.18143,-1.6482 -1.1883,-1.18357 -0.008,0.4646 0.20312,1.07775 0.46664,1.36252 0.26358,0.28477 0.78069,1.4605 1.14919,2.61274 0.48163,1.50593 1.15142,2.30444 2.38216,2.83997 2.18174,0.94934 2.26264,0.94856 3.07463,-0.0298 z m -0.55182,-9.94645 c -0.22301,-1.12409 -0.94607,-3.22848 -1.60675,-4.67644 -1.16148,-2.54544 -1.23599,-2.6012 -2.24976,-1.68378 -1.1675,1.05656 -1.11685,1.0817 -2.00974,-0.99742 -0.78134,-1.81926 -1.95026,-2.07221 -1.25927,-0.27251 0.61004,1.58883 4.00996,6.87035 5.43808,8.44767 1.61206,1.78046 2.15106,1.51932 1.68744,-0.81752 z m 2.18686,-9.67262 c 0,-0.55471 -2.98092,-7.89644 -3.70131,-9.11592 -2.34087,-3.96278 -2.39245,1.09106 -0.0628,6.14546 1.36899,2.97002 1.88144,3.60683 2.72504,3.38623 0.57148,-0.14945 1.03901,-0.33654 1.03901,-0.41577 z m -68.18334,-3.83474 c 2.0307,-2.31284 3.09986,-3.95821 3.54274,-5.45204 0.25568,-0.86239 0.0663,-1.13009 -0.84801,-1.19897 -0.64743,-0.0488 -1.37473,-0.40753 -1.61627,-0.79724 -0.32418,-0.52311 -0.87322,-0.20927 -2.09762,1.19897 -2.79672,3.21664 -3.03936,3.98609 -0.77165,2.44719 1.9553,-1.32688 4.02786,-1.79726 4.02786,-0.91412 0,0.24367 -0.75768,1.16337 -1.68371,2.04379 -1.84534,1.75443 -3.54414,4.5983 -2.74686,4.5983 0.2764,0 1.26348,-0.86665 2.19352,-1.92588 z m -5.93812,-2.84671 c 0,-0.7118 0.2747,-1.82988 0.6104,-2.48463 0.85786,-1.67305 3.8364,-4.73302 4.60708,-4.73302 0.99916,0 10.04282,-7.61247 10.04282,-8.45351 0,-0.92808 0.68034,-1.36468 2.59777,-1.66709 0.81941,-0.12922 2.28689,-0.36861 3.26107,-0.53198 2.33513,-0.39158 2.25648,0.40914 -0.15303,1.55815 -3.24979,1.54973 -3.15538,4.32973 0.11182,3.28931 1.76538,-0.56217 4.53761,-0.34561 4.53761,0.35449 0,0.25964 -0.5053,0.63246 -1.12289,0.82847 -0.6176,0.19603 -2.02782,1.17656 -3.13379,2.17898 -1.10601,1.00242 -2.62406,2.30898 -3.37344,2.90348 -0.74942,0.5945 -1.21821,1.22591 -1.04179,1.40314 0.17638,0.17722 1.03477,-0.29188 1.9075,-1.04244 1.25975,-1.08339 2.18016,-1.36482 4.46532,-1.36534 1.5832,-3.6e-4 4.281,-0.46861 5.99514,-1.04054 1.71412,-0.57192 4.83338,-1.12375 6.93167,-1.22627 3.8151,-0.18641 3.8151,-0.18641 3.98588,1.58488 0.18721,1.94188 1.43244,2.39575 2.51418,0.9164 0.56704,-0.77545 0.85113,-0.77234 3.05765,0.0333 1.33789,0.48851 3.21847,1.12692 4.17901,1.41867 0.96058,0.29175 2.26186,1.1856 2.89172,1.98633 0.91185,1.15926 1.33332,1.33957 2.06857,0.88499 1.24208,-0.76796 2.28593,-0.34005 2.28593,0.93707 0,0.74736 0.38283,1.04461 1.34539,1.04461 0.99491,0 1.26044,-0.22147 1.01924,-0.85003 -0.21722,-0.56612 0.0571,-0.95028 0.8216,-1.15018 0.97791,-0.25573 1.05875,-0.47277 0.54618,-1.46627 -0.5345,-1.03595 -4.79824,-5.41452 -7.1365,-7.32863 -0.75878,-0.62116 -0.82962,-0.55702 -0.55302,0.50068 0.26705,1.02112 0.15243,1.14986 -0.72415,0.81351 -0.57276,-0.21977 -2.70536,-1.53653 -4.73914,-2.92613 -3.69309,-2.52335 -4.54907,-4.13014 -2.28761,-4.29411 0.59416,-0.0432 1.38686,-0.10435 1.76154,-0.13624 1.09432,-0.0931 0.78363,-1.58703 -0.40877,-1.96548 -1.61198,-0.51163 -1.32241,-1.36253 0.4637,-1.36253 2.00553,0 4.85392,0.97459 6.78911,2.32287 0.84159,0.58637 1.65277,0.9435 1.80267,0.79361 0.37798,-0.37798 -2.59644,-2.43326 -4.93625,-3.4109 -1.9461,-0.81312 -2.40954,-1.53056 -1.39416,-2.15812 0.29974,-0.18526 0.545,-0.65807 0.545,-1.05069 0,-0.51338 -0.62229,-0.64196 -2.21588,-0.45789 -3.07181,0.35483 -9.16791,-0.88256 -10.39541,-2.11005 -1.32413,-1.32412 -3.54475,-1.30534 -4.26261,0.036 -0.57381,1.07217 -5.75131,3.31007 -7.65799,3.31007 -0.61179,0 -1.39673,0.65968 -1.86697,1.56898 -1.25325,2.42356 -3.61383,2.76221 -2.70267,0.38774 0.21901,-0.57069 0.0335,-0.8667 -0.54324,-0.8667 -0.48169,0 -0.8758,-0.25965 -0.8758,-0.57699 0,-0.89644 -5.9868,2.51226 -8.7202,4.96503 -1.80426,1.61904 -2.1284,2.11257 -1.22627,1.86717 1.92504,-0.52363 1.57506,1.69921 -0.58973,3.74573 -0.9988,0.94423 -3.21594,3.03581 -4.927,4.64795 -5.2245,4.92255 -6.98898,8.089 -5.97711,10.72599 0.33622,0.87607 0.40876,0.87212 1.09003,-0.0596 0.40146,-0.54898 0.72989,-1.58053 0.72989,-2.29234 z m 65.95704,-4.32272 c -1.05732,-2.39029 -1.07805,-2.65366 -0.25579,-3.2549 0.80898,-0.59153 0.73609,-0.88457 -0.76071,-3.06012 -1.73705,-2.52473 -5.20127,-5.84509 -6.09833,-5.84509 -0.69791,0 -0.67642,1.47778 0.0278,1.91303 0.86963,0.53747 0.0572,1.35703 -1.3453,1.35703 -1.62149,0 -2.31901,1.62999 -1.03489,2.41851 0.51862,0.31848 2.30666,1.33771 3.97341,2.26498 3.02158,1.68095 3.57704,2.36258 5.28818,6.48923 0.61969,1.49447 0.97502,1.88727 1.12998,1.24905 0.12435,-0.51204 -0.29166,-2.10132 -0.92441,-3.53172 z m -4.33397,-4.46106 c -0.87173,-1.62885 -0.70327,-2.79395 0.40397,-2.79395 1.51732,0 2.97028,1.31644 2.74669,2.48857 -0.27991,1.46719 -2.41796,1.67443 -3.15066,0.30538 z m -17.4772,112.47583 c 0,-2.20599 -0.12786,-2.45255 -1.27167,-2.45255 -1.8014,0 -2.06657,-0.47931 -1.08984,-1.97001 0.49358,-0.7533 1.38499,-1.30006 2.11953,-1.30006 1.60667,0 2.31162,-1.07597 1.13602,-1.73387 -0.49174,-0.27519 -0.89404,-1.13337 -0.89404,-1.90709 0,-1.30335 -0.14023,-1.384 -1.90754,-1.09719 -1.68212,0.27296 -1.90755,0.17174 -1.90755,-0.85652 0,-0.64134 0.75587,-1.94593 1.6797,-2.89909 1.43708,-1.48268 1.88977,-1.6631 3.13383,-1.24903 0.79978,0.2662 2.43513,0.72776 3.63414,1.02568 3.55641,0.88365 3.59645,0.96746 2.3479,4.9108 -0.61541,1.9436 -1.60489,3.92198 -2.19882,4.39642 -0.69313,0.55363 -1.18347,1.78104 -1.36893,3.42666 -0.19828,1.75905 -0.64634,2.81435 -1.42714,3.36123 -1.73285,1.21373 -1.98559,1.00299 -1.98559,-1.65538 z m 38.1591,-5.09931 c 0.0111,-2.56399 0.65363,-3.55766 2.02093,-3.12369 0.96688,0.30686 2.33082,2.3841 2.33082,3.54977 0,0.24917 -0.98102,0.70206 -2.18007,1.00641 -2.18003,0.55336 -2.18003,0.55336 -2.17168,-1.43249 z m -44.69922,-1.71333 c 0,-1.37015 0.2155,-1.63502 1.33035,-1.63502 1.84402,0 2.18435,0.84537 0.86955,2.16015 -1.54364,1.54366 -2.1999,1.38701 -2.1999,-0.52513 z m 85.02167,168.95335 c 0,-2.6978 -0.0184,-5.08291 -0.0409,-5.30023 -0.0225,-0.21731 0.16889,-0.46507 0.42532,-0.55053 0.25637,-0.0854 1.2705,1.47572 2.25356,3.46929 1.78742,3.62468 1.78742,3.62468 0.0126,5.45562 -0.97603,1.00701 -1.97176,1.83096 -2.21269,1.83096 -0.24096,0 -0.4381,-2.2073 -0.4381,-4.90511 z m -11.66904,-3.90107 c -3.18363,-0.71455 -5.4833,-2.36734 -7.35729,-5.28766 -3.1946,-4.97835 -2.65672,-10.68773 1.33721,-14.19446 4.68845,-4.11652 12.92441,-2.36423 16.34836,3.4783 2.6259,4.48077 2.47152,9.3139 -0.40205,12.58673 -2.79129,3.1791 -6.02571,4.29255 -9.92623,3.41709 z m 8.22277,-4.41035 c 1.67088,-1.85629 1.882,-2.99863 0.9625,-5.20806 -1.96016,-4.70988 -8.62315,-9.31747 -12.4388,-8.60166 -3.28367,0.61602 -4.57469,3.95515 -2.83211,7.32493 1.02566,1.98341 5.37918,5.96025 7.56583,6.91119 2.70879,1.17802 5.45471,1.00437 6.74258,-0.4264 z m 10.84713,-9.53768 c 0.21934,-1.13962 -0.82876,-3.76131 -4.37371,-10.94024 -2.56423,-5.19281 -4.66219,-9.66871 -4.66219,-9.94644 0,-0.93155 1.68018,-0.52176 11.41005,2.78292 8.28957,2.81549 9.89902,3.20486 11.20107,2.70981 0.83628,-0.31798 1.63871,-0.45994 1.78317,-0.31549 0.3423,0.34233 -2.49608,3.88282 -5.05707,6.308 -2.01441,1.90754 -2.01441,1.90754 -1.65891,0.2231 0.2325,-1.10154 0.11133,-1.87807 -0.34998,-2.24396 -0.61975,-0.49152 -11.92507,-4.51927 -12.68491,-4.51927 -0.16047,0 1.18356,2.94305 2.98673,6.54013 1.80314,3.59708 3.4728,6.54014 3.71028,6.54014 0.23749,0 0.70466,-0.27285 1.03813,-0.60634 0.33347,-0.33347 0.92011,-0.50171 1.30369,-0.37387 0.44624,0.14876 -0.15026,1.15201 -1.65677,2.78637 -2.69916,2.92825 -3.39756,3.17474 -2.98958,1.05514 z m -200.75841,-9.70486 c -1.29161,-0.90467 -1.54601,-2.41291 -0.67989,-4.03122 0.45977,-0.8591 0.22006,-1.07131 -1.77826,-1.5745 -5.25876,-1.32416 -6.93908,-6.11988 -3.38836,-9.6706 2.09243,-2.09241 5.38616,-1.81263 10.80033,0.91738 4.42839,2.23296 4.42839,2.23296 5.94428,0.53641 1.63895,-1.83432 1.83773,-2.78463 0.93523,-4.471 -0.96033,-1.79435 -2.72552,-2.14018 -4.72496,-0.92564 -2.32337,1.41128 -4.08881,0.91616 -3.85503,-1.08116 0.22981,-1.9632 2.37831,-3.1007 4.94658,-2.61889 4.01213,0.75267 8.47245,7.19955 7.10863,10.27463 -0.3001,0.67665 -3.09752,3.33158 -6.21647,5.89984 -3.11891,2.56827 -5.67078,5.02081 -5.67078,5.45011 0,0.4293 0.55183,0.85893 1.22627,0.9547 0.67445,0.0957 1.22627,0.40236 1.22627,0.68127 0,0.83713 -4.57056,0.57154 -5.87384,-0.34133 z m 4.53471,-8.48224 c 1.63576,-1.23502 2.97417,-2.34996 2.97417,-2.47762 0,-0.50714 -5.80572,-2.89669 -7.05001,-2.90167 -1.84783,-0.008 -3.85022,2.0275 -3.85022,3.91276 0,1.16164 0.44215,1.81762 1.77131,2.62802 0.97419,0.59397 2.08835,1.08088 2.47594,1.082 0.38754,10e-4 2.04301,-1.00845 3.67881,-2.24349 z m 210.83557,-5.18789 c -1.1659,-0.79107 -3.80039,-2.75309 -5.85439,-4.36009 -4.31841,-3.3786 -5.25815,-3.60855 -5.25815,-1.28674 0,2.04882 -0.95808,2.14223 -1.39766,0.13625 -0.18063,-0.82433 -0.42367,-1.80747 -0.54009,-2.18478 -0.27678,-0.89693 0.73645,-3.53574 1.56308,-4.07079 0.35594,-0.23039 1.32164,-0.2772 2.14599,-0.10414 1.48195,0.3113 1.49876,0.2833 1.49876,-2.49545 0,-2.37942 0.24427,-3.05453 1.59313,-4.40338 3.07705,-3.07705 8.04659,-1.65501 9.3435,2.67364 0.5007,1.67111 0.40288,2.8895 -0.55558,6.91966 -1.16329,4.89141 -1.16329,4.89141 0.0111,5.84517 1.69353,1.37571 4.60389,1.24317 5.65505,-0.25752 1.20187,-1.71592 1.07038,-2.47958 -0.79225,-4.60097 -1.33852,-1.52451 -1.53571,-2.06464 -1.07082,-2.93325 1.15294,-2.15433 4.22831,-0.90976 5.13976,2.08002 0.6554,2.14998 -1.17792,6.44332 -3.6579,8.56608 -2.75437,2.35765 -4.86123,2.48589 -7.82325,0.47619 z m 0.733,-10.16008 c 0.24766,-3.08524 0.1386,-3.66802 -0.87622,-4.68286 -2.53848,-2.53847 -6.06422,-0.79229 -6.06422,3.00338 0,1.44285 0.48103,2.12289 2.81733,3.98308 1.75508,1.39745 3.01013,2.05031 3.32876,1.73166 0.28135,-0.28131 0.63881,-2.09718 0.79435,-4.03526 z m -228.38975,8.65851 c -0.16034,-0.41791 -1.44049,-2.27057 -2.84474,-4.11703 -1.40425,-1.84646 -2.39884,-3.51155 -2.21019,-3.70018 0.18864,-0.18862 0.63316,-0.0527 0.98788,0.30196 0.35472,0.3547 1.16418,0.64492 1.79882,0.64492 1.09306,0 8.5244,-5.13874 11.9191,-8.24201 1.57303,-1.43801 1.5731,-1.43838 0.54499,-2.84857 -0.56551,-0.77572 -1.45276,-1.41812 -1.9716,-1.42753 -0.87883,-0.0159 -1.20943,-0.7385 -1.62873,-3.55971 -0.12365,-0.83185 -0.65066,-1.13042 -2.2252,-1.26059 -1.742,-0.14403 -2.77866,0.30547 -6.65895,2.88731 -6.1205,4.07247 -6.42204,4.40554 -6.00434,6.63231 0.18819,1.00302 0.14707,1.81974 -0.0913,1.81491 -0.68941,-0.0139 -6.18406,-8.77018 -5.84635,-9.31664 0.16765,-0.27123 0.67458,-0.12339 1.12651,0.32854 0.45192,0.45193 1.28157,0.82171 1.84365,0.82171 1.27463,0 12.48744,-7.44194 12.92298,-8.57701 0.17572,-0.45792 0.0404,-1.27922 -0.30037,-1.82513 -1.07736,-1.72515 0.12068,-1.57459 3.03995,0.38204 3.27573,2.19555 3.84595,2.91171 2.79826,3.51441 -0.41677,0.23978 -1.20509,0.76926 -1.75185,1.17667 -0.90245,0.67249 -0.80211,0.75365 1.08946,0.88103 3.66873,0.24708 5.82448,2.58768 4.55979,4.9508 -0.51517,0.96258 -0.23394,1.31215 2.42238,3.01137 1.65282,1.05731 3.00514,2.1387 3.00514,2.40308 0,0.26438 -3.41415,2.98299 -7.58696,6.04133 -4.17285,3.05835 -7.72818,5.92853 -7.90071,6.37819 -0.17255,0.44966 -0.0781,1.25805 0.21014,1.79644 0.50538,0.94428 0.26242,1.66721 -0.5603,1.66721 -0.21773,0 -0.52709,-0.34193 -0.68744,-0.75983 z M 382.0085,369.15005 c -4.98197,-3.03755 -5.30088,-9.64034 -0.71772,-14.86026 1.72993,-1.97031 1.72993,-1.97031 -1.1581,-3.80023 -7.70235,-4.88038 -8.02098,-4.97686 -10.07217,-3.04989 -2.4472,2.299 -1.84354,0.48897 1.74156,-5.22202 3.4482,-5.49297 5.25512,-7.14625 3.90708,-3.57493 -0.44187,1.17068 -0.45451,1.91819 -0.0436,2.58646 0.70658,1.14935 20.11919,13.51249 22.00869,14.01643 1.04685,0.27923 1.62832,0.0424 2.56262,-1.04382 1.31485,-1.5286 1.80584,-1.7434 1.80584,-0.79004 0,0.87474 -6.93179,11.88704 -8.6489,13.74023 -0.78858,0.85108 -2.09607,1.89342 -2.90554,2.31629 -2.15885,1.12785 -6.36697,0.96993 -8.47969,-0.31822 z m 11.09596,-5.67105 c 1.01915,-1.01917 1.8526,-2.30676 1.85211,-2.86131 0,-1.04494 -8.47261,-6.79554 -10.21465,-6.93376 -1.15561,-0.0917 -3.41024,3.25118 -3.40766,5.05232 0.005,3.44937 3.69817,6.559 7.81886,6.58339 1.66871,0.01 2.47764,-0.36697 3.95134,-1.84064 z m -238.10135,-1.91142 c -1.43118,-0.17771 -2.59008,-0.56839 -2.57532,-0.86814 0.0147,-0.29975 1.67623,-1.10238 3.69219,-1.7836 3.66537,-1.23859 3.66537,-1.23859 5.14949,0.54501 0.81624,0.98098 1.4907,1.96755 1.4988,2.19236 0.0164,0.45338 -3.75998,0.41174 -7.76516,-0.0856 z m -35.14742,-5.85742 c -2.19348,-1.08122 -2.83118,-3.06769 -1.46827,-4.5737 1.10452,-1.22049 1.12834,-1.18018 -1.26019,-2.13137 -5.02127,-1.99959 -5.93443,-7.55365 -1.6573,-10.08018 2.5781,-1.52294 5.42127,-0.84903 10.07902,2.38908 2.18564,1.51944 4.12319,2.76262 4.3057,2.76262 0.18251,0 1.04418,-0.5072 1.91475,-1.12713 2.11978,-1.50939 2.2332,-4.41677 0.22371,-5.73344 -1.24112,-0.81321 -1.54376,-0.81675 -3.48348,-0.0407 -1.97328,0.78955 -2.18662,0.78111 -3.00089,-0.1187 -1.18291,-1.30714 -1.10374,-2.02442 0.33469,-3.03194 3.45621,-2.42082 8.57222,0.9876 10.24686,6.82676 0.94305,3.28824 -0.33558,4.91367 -6.63598,8.43598 -6.96499,3.89384 -7.7496,4.51618 -6.93356,5.4995 0.33543,0.40412 0.94766,0.73478 1.36063,0.73478 0.41293,0 0.75078,0.24526 0.75078,0.54502 0,0.83349 -2.78369,0.62562 -4.77647,-0.3567 z m 4.98215,-8.59878 c 3.20323,-1.83732 3.20323,-1.83732 0.85054,-3.54158 -2.81813,-2.04147 -4.54153,-2.54462 -6.43503,-1.87873 -1.67906,0.5905 -2.8546,2.67813 -2.32073,4.12131 0.39192,1.05947 3.18092,3.17236 4.15695,3.14924 0.29979,-0.008 1.98648,-0.83971 3.74827,-1.85024 z m -16.27773,-10.90882 c -0.75256,-1.66439 -1.98145,-4.38205 -2.73083,-6.03926 -0.74938,-1.6572 -1.36251,-3.25136 -1.36251,-3.54257 0,-0.96463 1.01049,-0.54851 1.36267,0.56114 0.79251,2.49688 2.08664,2.3914 9.13432,-0.74445 8.33624,-3.70922 14.0285,-6.39251 14.0285,-6.61298 0,-0.0929 -6.28474,-0.18226 -13.96608,-0.19856 -7.6813,-0.0164 -14.0883,-0.15189 -14.23775,-0.30134 -0.21729,-0.21729 9.16256,-11.46259 13.67247,-16.39168 0.55084,-0.60202 1.71973,-1.99323 2.59754,-3.09156 1.59603,-1.99699 1.59603,-1.99699 -2.63653,-0.18516 -7.86593,3.36717 -14.78185,6.6162 -15.69308,7.37245 -0.68806,0.57106 -0.82472,1.26283 -0.56732,2.87254 0.54602,3.41455 -0.62295,2.21795 -3.02227,-3.09366 -2.204396,-4.88005 -2.387641,-6.75289 -0.39283,-4.01442 0.66505,0.91292 1.60067,1.49778 2.39611,1.49778 1.19614,0 11.78294,-4.60393 20.40451,-8.8734 3.54254,-1.75432 3.54254,-1.75432 3.49553,-4.07061 -0.0278,-1.36677 0.20177,-2.31629 0.55997,-2.31629 0.62183,0 3.89643,6.87942 3.7857,7.95322 -0.0339,0.32756 -3.9103,5.04872 -8.61458,10.49145 -8.55314,9.89588 -8.55314,9.89588 4.86574,9.89588 13.41887,0 13.41887,0 15.33096,4.13843 1.97205,4.26828 2.02707,5.99008 0.10716,3.35447 -0.65769,-0.90282 -1.60229,-1.49778 -2.37809,-1.49778 -1.65431,0 -22.53078,9.52477 -23.94876,10.92649 -0.92109,0.91053 -0.98604,1.29363 -0.45699,2.69525 1.12372,2.97707 -0.33019,2.31839 -1.73358,-0.78538 z m 291.6054,-1.88696 c -0.16857,-0.2727 -0.17013,-0.85108 -0.003,-1.28527 0.19395,-0.50549 -3.13432,-4.49301 -9.2529,-11.08565 -10.40408,-11.21021 -11.79111,-13.3746 -10.89066,-16.99431 0.6218,-2.49973 2.63636,-3.7243 4.30622,-2.61761 1.60523,1.06384 1.59845,2.14513 -0.0258,4.07517 -1.8096,2.15062 -1.52878,3.59716 1.26941,6.5387 2.04371,2.14838 2.04371,2.14838 12.1202,1.86867 7.29033,-0.20238 10.4103,-0.4905 11.28365,-1.04201 2.37084,-1.4972 2.35706,-0.97858 -0.116,4.37551 -1.0486,2.27006 -2.18085,4.12738 -2.51616,4.12738 -0.33751,0 -0.4847,-0.47762 -0.32983,-1.06998 0.49767,-1.90308 -0.78355,-2.24234 -7.85943,-2.08108 -6.73601,0.1535 -6.73601,0.1535 -1.73333,5.31433 4.96297,5.11984 5.01166,5.1527 6.13136,4.13935 1.01921,-0.92234 1.12871,-0.93218 1.12871,-0.10134 0,0.92318 -2.54106,6.33398 -2.97457,6.33398 -0.12718,0 -0.36907,-0.22312 -0.53761,-0.49583 z m 14.27612,-38.3189 c -1.72362,-0.58403 -3.13384,-1.25885 -3.13384,-1.4996 0,-0.24073 1.10885,-0.60398 2.46404,-0.80722 5.14037,-0.77084 7.27544,-6.80735 2.57444,-7.27879 -1.39206,-0.13962 -2.31311,0.41749 -5.63158,3.4063 -3.69411,3.3271 -4.14308,3.57322 -6.51871,3.57322 -5.97997,0 -8.13277,-5.58706 -4.55246,-11.81477 0.71998,-1.25241 1.30909,-2.66263 1.30909,-3.13382 0,-1.06923 0.26642,-1.0664 3.58174,0.0381 4.35233,1.4499 4.68146,2.04547 1.35838,2.45819 -3.82702,0.47534 -6.15414,2.57653 -5.91927,5.3447 0.1165,1.3737 0.52665,2.08598 1.47043,2.55393 1.70506,0.84542 3.28895,0.22906 6.10363,-2.37516 3.34885,-3.09849 4.92368,-3.9638 7.22111,-3.96774 1.66226,-0.002 2.48337,0.38149 3.95134,1.84944 2.33098,2.331 2.47348,4.9412 0.46186,8.4604 -0.75788,1.32592 -1.25616,2.72828 -1.10725,3.11635 0.44988,1.17239 -0.34923,1.18922 -3.63295,0.0766 z M 90.825121,285.62421 c -3.590159,-1.8137 -5.038435,-4.2798 -4.769797,-8.12189 0.411207,-5.88069 4.99535,-9.43631 12.181326,-9.4483 3.32009,-0.005 4.17427,0.20624 6.17956,1.53198 5.76213,3.80946 5.62058,12.00292 -0.25548,14.79132 -1.0794,0.5122 -2.07122,0.82261 -2.20398,0.68983 -0.13281,-0.13281 -0.73519,-2.05449 -1.33865,-4.27041 -2.81356,-10.33157 -2.56602,-9.77231 -4.07204,-9.19969 -7.217361,2.74402 -8.273464,11.75184 -1.5875,13.53995 0.84397,0.22571 1.63226,0.70358 1.7517,1.06193 0.3682,1.10462 -3.26283,0.75004 -5.885139,-0.57472 z m 13.834549,-7.19538 c 1.86696,-1.73023 1.96587,-4.53803 0.21587,-6.12711 -1.29721,-1.1779 -3.94849,-2.03606 -4.75343,-1.53859 -0.26368,0.16295 -0.009,1.94855 0.56741,3.968 1.68535,5.91114 1.63372,5.86305 3.97015,3.6977 z m 10.02605,-2.26716 c -2.62288,-1.32176 -4.76886,-2.52319 -4.76886,-2.66983 0,-0.14665 1.9526,-0.26663 4.3391,-0.26663 4.33904,0 4.33904,0 4.93697,2.22056 0.32889,1.2213 0.52228,2.42273 0.42977,2.66984 -0.0924,0.2471 -2.31415,-0.63218 -4.93698,-1.95394 z m 296.23499,-0.25808 c -6.33947,-3.138 -8.59447,-10.17736 -4.97415,-15.52759 4.818,-7.12016 18.32725,-4.39137 20.63191,4.1675 1.10349,4.09809 -0.94832,8.99789 -4.68499,11.18771 -2.94285,1.72463 -7.68635,1.79915 -10.97277,0.17238 z m 10.5677,-4.04668 c 2.46349,-1.02932 3.40516,-2.24289 3.42735,-4.41706 0.038,-3.73115 -4.54052,-6.34113 -11.12397,-6.34113 -4.04838,0 -6.43014,1.09126 -7.37842,3.38062 -1.37904,3.32925 0.83599,5.79117 6.60705,7.34363 3.82977,1.03023 6.06212,1.03918 8.46799,0.0339 z M 83.546447,265.54694 c -1.946091,-1.5308 -2.854193,-3.44993 -3.329779,-7.03702 -0.218611,-1.64865 -0.632755,-3.28904 -0.920316,-3.64528 -0.378557,-0.4689 0.12732,-0.82447 1.832288,-1.28788 1.295359,-0.35206 3.008794,-0.83763 3.807627,-1.07905 2.28487,-0.69046 2.242647,0.003 -0.129901,2.13655 -1.566896,1.40831 -2.279968,2.54646 -2.506996,4.00136 -0.421763,2.70308 0.890271,4.77939 3.020111,4.77939 2.115647,0 3.152753,-1.35038 4.203706,-5.47354 1.564352,-6.1371 3.206379,-8.15171 6.644233,-8.15171 4.0539,0 6.66432,2.82866 6.66432,7.22156 0,1.30385 0.29021,2.66083 0.64489,3.01554 0.35472,0.35472 0.50118,0.78872 0.32546,0.96445 -0.50094,0.50092 -6.50579,1.97502 -6.80926,1.67158 -0.14943,-0.14945 0.76842,-1.26116 2.03971,-2.47051 2.09778,-1.99558 2.28189,-2.38091 1.99167,-4.16931 -0.38677,-2.38334 -1.23813,-3.50826 -2.65513,-3.50826 -2.31538,0 -3.07399,1.00267 -4.01977,5.31303 -1.079361,4.9193 -1.944011,6.82855 -3.625975,8.00665 -1.763867,1.23544 -5.427325,1.08866 -7.176888,-0.28755 z m 356.056523,-9.97628 c -0.47583,-0.44884 -26.25057,-6.32592 -27.74323,-6.32592 -1.08982,0 -1.67406,0.33264 -1.91446,1.09001 -0.38407,1.21015 -1.36251,1.48808 -1.36251,0.38702 0,-0.38666 0.33731,-2.04213 0.74959,-3.67882 0.41231,-1.63669 0.90748,-3.65026 1.10041,-4.47459 0.43038,-1.83879 1.42006,-1.98026 1.42006,-0.20299 0,0.71269 0.3255,1.56594 0.72338,1.89614 0.72065,0.59808 21.51878,5.80311 24.60912,6.15878 1.34297,0.15457 1.75639,-0.087 2.38518,-1.39347 0.976,-2.02791 1.44738,-1.21459 1.94258,3.35173 0.33658,3.10321 0.27813,3.40632 -0.65678,3.40632 -0.56446,0 -1.12847,-0.0964 -1.25334,-0.21421 z M 84.573857,248.19771 c -4.317583,-1.18894 -6.143912,-2.66946 -7.60412,-6.16429 -1.859151,-4.44953 -0.352394,-9.07116 3.941116,-12.08878 3.911537,-2.74913 10.845016,-2.60264 14.544397,0.30726 2.09415,1.64727 3.56139,4.92841 3.56139,7.96421 0,6.68561 -7.525328,11.88646 -14.442783,9.9816 z m 7.656087,-5.75442 c 3.438136,-1.68213 4.730356,-3.438 4.501616,-6.11685 -0.11932,-1.39741 -0.60624,-2.28745 -1.69374,-3.09608 -3.286128,-2.44337 -11.668277,-0.61467 -15.100504,3.29441 -2.093283,2.38412 -2.08242,4.17732 0.03846,6.29795 1.628657,1.62864 1.763216,1.66139 5.529639,1.34563 2.503358,-0.20988 4.867244,-0.81626 6.72476,-1.72506 z m 332.891136,-1.77111 c -0.46712,-0.31201 -0.31981,-2.20715 0.57092,-7.34575 1.20048,-6.92525 1.20048,-6.92525 0.0845,-7.0982 -4.10184,-0.63573 -9.08996,2.254 -9.77128,5.66077 -0.4182,2.09087 0.8172,5.02553 2.60999,6.20024 2.23452,1.46411 1.01786,2.04427 -1.41875,0.6765 -8.94849,-5.02317 -5.24396,-16.76127 5.28406,-16.74282 3.79421,0.006 8.2272,1.93871 10.2698,4.47599 3.20323,3.97898 2.36949,10.72181 -1.61128,13.03072 -1.90286,1.10368 -5.15252,1.72065 -6.01799,1.14255 z m 6.7609,-6.42973 c 1.60748,-1.84679 1.55018,-3.6045 -0.18472,-5.66631 -2.04727,-2.43302 -3.27149,-2.21934 -3.66386,0.63946 -0.17487,1.27396 -0.48254,3.34445 -0.68374,4.60108 -0.36579,2.28478 -0.36579,2.28478 1.47011,2.05969 1.09208,-0.13389 2.33278,-0.79591 3.06221,-1.63392 z m -325.96187,-9.34153 c -0.19985,-0.19983 -0.36335,-0.77496 -0.36335,-1.27806 0,-0.50309 -0.4773,-1.34669 -1.06073,-1.87465 -1.00566,-0.91015 -1.50753,-0.91433 -9.67391,-0.0808 -14.31021,1.46082 -16.995548,1.1423 -19.947643,-2.36607 -2.693386,-3.20091 -1.603306,-8.75248 1.718633,-8.75248 3.306074,0 3.69214,2.44704 0.75935,4.81344 -2.557686,2.06373 -1.922633,3.03907 1.887635,2.89919 3.926492,-0.14413 22.769545,-2.1904 23.795445,-2.58407 0.49259,-0.18903 1.03661,-0.99108 1.20895,-1.78234 0.95661,-4.39244 1.61017,-2.67674 2.17127,5.69977 0.36503,5.44879 0.30367,6.1053 -0.49565,5.30598 z m 326.95454,-3.76317 c -1.12682,-1.12682 -1.08313,-1.6061 0.31924,-3.50291 0.9981,-1.35003 1.06583,-1.72252 0.44845,-2.46643 -1.3003,-1.56676 -3.44032,-2.30634 -8.6067,-2.97442 -5.71611,-0.73916 -7.5045,-0.4976 -8.00564,1.08131 -0.42597,1.3422 -1.36186,1.43489 -1.36279,0.13497 0,-2.25949 1.29284,-9.94643 1.675,-9.94643 0.23049,0 0.57623,0.71527 0.76821,1.58949 0.19205,0.87424 0.71051,1.72818 1.15221,1.89769 1.66525,0.63901 14.2362,2.13879 15.11155,1.80289 0.50277,-0.19293 0.91411,-0.86941 0.91411,-1.50331 0,-2.06309 1.28922,-0.79604 2.00699,1.9725 1.06993,4.12667 0.97252,4.59594 -0.95407,4.59594 -1.67215,0 -1.67215,0 -0.45418,1.71049 1.49348,2.09739 1.58738,4.71379 0.20545,5.7243 -1.32038,0.96547 -2.16679,0.93493 -3.21783,-0.11601 z m -6.73069,-18.45399 c -5.21448,-1.67514 -8.29072,-5.38619 -8.29399,-10.0056 -0.003,-5.52716 3.48703,-9.35581 9.3019,-10.20182 7.72565,-1.12399 14.95107,5.83064 13.13033,12.63823 -0.8861,3.31304 -2.03925,4.90119 -4.6625,6.42136 -2.8819,1.67009 -6.4896,2.1071 -9.47574,1.14783 z m 6.96429,-4.71502 c 4.17654,-0.95936 6.3557,-4.04599 5.12351,-7.25706 -1.10096,-2.86908 -8.79358,-4.45804 -13.69734,-2.82927 -3.14206,1.04363 -4.35808,2.16823 -4.81507,4.45306 -0.86511,4.32558 6.17907,7.28937 13.3889,5.63327 z m 17.44031,-19.78992 c 0,-2.64021 -1.35759,-2.94444 -15.01055,-3.36385 -11.43004,-0.35113 -12.64167,-0.30214 -13.48904,0.5452 -0.51205,0.51205 -0.93098,1.52661 -0.93098,2.25459 0,0.72797 -0.26639,1.32359 -0.59196,1.32359 -0.74881,0 -0.41358,-13.22692 0.34532,-13.62527 0.28556,-0.14989 0.59728,0.4073 0.69276,1.23818 0.30555,2.65869 1.59322,2.97917 13.45165,3.34796 10.90023,0.33901 10.90023,0.33901 -1.77127,-5.95152 -6.96933,-3.4598 -12.67149,-6.49496 -12.67149,-6.74483 0,-0.43264 4.91678,-2.6194 19.25614,-8.56428 6.44836,-2.6734 6.44836,-2.6734 3.27005,-3.023 -1.74808,-0.19228 -6.86941,-0.37622 -11.38071,-0.40877 -8.70238,-0.0628 -9.51046,0.14987 -9.51046,2.50241 0,0.68944 -0.24525,1.25353 -0.54499,1.25353 -0.32701,0 -0.54504,-2.18005 -0.54504,-5.45011 0,-4.48121 0.14536,-5.45012 0.81751,-5.45012 0.53732,0 0.81753,0.5376 0.81753,1.56831 0,0.86256 0.3501,1.85885 0.77802,2.21399 0.85872,0.71269 23.55808,1.69738 25.92753,1.12473 0.83203,-0.20109 1.66606,-1.00826 2.14214,-2.07316 0.42879,-0.9591 0.98061,-1.74385 1.22627,-1.74385 0.24567,0 0.44664,1.976 0.44664,4.3911 0,4.3911 0,4.3911 -3.95134,6.178 -2.1732,0.98279 -7.69143,3.33577 -12.26274,5.22884 -4.57126,1.89308 -8.30743,3.58888 -8.30256,3.76846 0.005,0.17958 5.21648,2.92884 11.58146,6.10948 11.57268,5.78298 11.57268,5.78298 11.57268,10.03728 0,2.91899 -0.21387,4.32559 -0.68128,4.48138 -0.42673,0.14226 -0.68129,-0.2942 -0.68129,-1.16827 z m -88.66244,-65.29994 c -0.29835,-0.3874 -1.72165,-3.40217 -3.16284,-6.69948 -1.4412,-3.29731 -4.16765,-9.539067 -6.05876,-13.870586 -1.89114,-4.331506 -3.55968,-7.519821 -3.70791,-7.085143 -1.50773,4.422465 -5.19196,19.399949 -4.95537,20.145289 0.16857,0.53115 1.04774,1.27276 1.95371,1.64803 3.3861,1.40255 0.58771,1.49953 -4.27226,0.14803 -5.19364,-1.44428 -6.42564,-2.34814 -3.20053,-2.34814 1.0124,0 2.10285,-0.31579 2.42319,-0.70176 0.32034,-0.38597 1.9889,-5.786249 3.70797,-12.000635 3.12553,-11.298877 3.12553,-11.298877 2.0241,-12.78725 -0.60579,-0.818617 -1.77794,-1.819889 -2.60478,-2.225062 -1.96303,-0.961949 -1.09384,-1.921908 1.09076,-1.204658 0.88034,0.289036 2.60171,0.781113 3.82529,1.093496 2.47042,0.630741 1.79985,-0.594661 10.30602,18.833199 1.70615,3.896828 3.28248,7.27574 3.50298,7.50872 0.56408,0.5961 5.64134,-17.665352 5.21798,-18.767795 -0.19088,-0.497128 -1.07881,-1.206981 -1.97323,-1.577464 -3.36858,-1.395312 -0.55195,-1.486701 4.29332,-0.139314 5.22368,1.452627 6.42358,2.348144 3.14637,2.348144 -1.37657,0 -2.10294,0.335462 -2.65517,1.226274 -0.41808,0.674449 -2.29044,6.867133 -4.16071,13.761525 -1.87031,6.89437 -3.5799,12.72957 -3.79908,12.96709 -0.21917,0.23753 -0.64265,0.1149 -0.94105,-0.27251 z m -212.50988,-2.56036 c -3.5291,-1.60272 -4.86189,-4.00702 -7.05876,-12.733824 -3.11343,-12.367563 -3.55391,-13.250694 -6.30754,-12.645895 -2.52826,0.555301 -1.83999,-0.720101 0.74872,-1.387374 1.27394,-0.328383 4.0971,-1.073602 6.27369,-1.656036 4.49941,-1.204019 4.49149,-1.202863 4.48681,-0.650216 0,0.224816 -0.73768,0.826543 -1.63502,1.337176 -1.15585,0.657687 -1.6316,1.341698 -1.6316,2.345698 0,2.134006 4.18425,17.407561 5.44691,19.882581 1.94716,3.81675 6.01863,4.8421 10.62647,2.67615 5.13242,-2.41252 5.7216,-6.0814 2.72949,-16.997524 -1.04916,-3.827631 -1.90755,-7.331267 -1.90755,-7.785853 0,-0.454585 -0.60794,-1.434475 -1.35103,-2.177543 -1.04074,-1.040743 -1.68288,-1.267722 -2.79611,-0.988333 -1.04654,0.262665 -1.38104,0.170514 -1.21278,-0.334146 0.25626,-0.768763 9.63713,-3.387621 10.41426,-2.907341 0.26749,0.165317 -0.27804,0.765433 -1.21226,1.333576 -0.93425,0.568142 -1.82973,1.374606 -1.98995,1.792142 -0.16019,0.417523 0.73968,4.646777 1.99976,9.398314 2.81712,10.622694 2.99032,13.845648 0.91283,16.984938 -1.63932,2.4772 -3.63082,3.712 -7.76227,4.81291 -3.70473,0.9872 -6.12278,0.9047 -8.77407,-0.2994 z m 29.50302,-7.10671 c -0.17177,-0.27791 0.36391,-0.82942 1.19042,-1.22556 0.82652,-0.39613 1.58132,-1.12816 1.67734,-1.62673 0.0959,-0.498579 -1.28578,-4.298157 -3.07072,-8.443517 -7.2162,-16.759295 -7.39495,-17.040061 -10.17549,-15.982889 -0.98928,0.376111 -1.35749,0.334982 -1.35656,-0.15154 0,-0.748132 12.14859,-6.069863 15.53155,-6.804464 3.85945,-0.83807 7.80622,0.726761 9.42445,3.736674 1.18507,2.204246 0.5201,6.208315 -1.43511,8.64131 -1.70531,2.122013 -1.70531,2.122013 2.78282,4.813654 6.97403,4.182497 8.01824,4.620542 10.86177,4.556482 1.44047,-0.03244 2.61903,0.148347 2.61903,0.40177 0,0.532052 -6.02582,3.334683 -7.16978,3.334683 -0.42122,0 -3.89889,-1.839416 -7.72818,-4.087581 -3.82924,-2.248178 -7.37804,-4.083834 -7.88613,-4.079238 -2.35478,0.02126 -2.40113,0.766785 -0.34143,5.490525 2.58608,5.930929 3.23601,6.663171 5.53184,6.232462 3.0136,-0.565353 1.99593,0.504058 -2.16295,2.272809 -2.17324,0.92429 -4.85792,2.07334 -5.96594,2.55348 -1.15793,0.50174 -2.14745,0.6581 -2.32693,0.36767 z m 4.88657,-19.255357 c 4.27941,-2.398993 5.13866,-7.382313 1.82086,-10.560478 -1.30035,-1.245615 -2.08789,-1.54216 -3.98695,-1.501166 -1.31603,0.02839 -3.08795,0.512255 -3.9918,1.09002 -1.62527,1.038948 -1.62527,1.038948 0.82564,6.625311 1.34797,3.072496 2.60866,5.582319 2.80156,5.577391 0.19285,-0.005 1.33163,-0.558914 2.53069,-1.231078 z m 141.02154,17.417427 c -2.77276,-1.24096 -5.04138,-2.445483 -5.04138,-2.676713 0,-0.231232 0.73111,-0.420412 1.62465,-0.420412 1.95521,0 2.32931,-1.018341 2.08479,-5.67474 -0.16686,-3.176764 -0.16686,-3.176764 -5.07196,-5.289707 -2.69779,-1.162127 -5.03565,-2.113595 -5.19518,-2.114381 -0.15958,-8.12e-4 -1.44717,1.139296 -2.86131,2.533526 -2.7776,2.738425 -3.19592,4.177496 -1.48119,5.095194 1.16069,0.62118 1.47649,1.635036 0.50929,1.635036 -1.28572,0 -8.74566,-3.820136 -8.43656,-4.320263 0.18263,-0.295475 0.6699,-0.40757 1.08292,-0.249098 1.31988,0.506492 4.1742,-1.424977 9.24602,-6.25672 14.54562,-13.857004 16.16202,-15.334441 16.77645,-15.334441 0.24326,0 0.44228,7.351998 0.44228,16.337765 0,16.337744 0,16.337744 1.35781,17.227444 0.74684,0.48933 1.22288,1.10813 1.05788,1.37509 -0.41487,0.67125 -0.43718,0.6644 -6.09451,-1.86758 z m -0.73246,-21.292025 c 0.0866,-5.387154 0.0866,-5.387154 -4.3124,-1.248847 -2.41948,2.276073 -4.41761,4.332403 -4.44025,4.569631 -0.0225,0.23724 1.76501,1.193978 3.97256,2.126117 4.81189,2.031791 4.65697,2.208313 4.78009,-5.446901 z m -109.27738,3.563467 c -2.64193,-1.23802 -3.40164,-2.221524 -9.49917,-12.296708 -4.64794,-7.680037 -4.64794,-7.680037 -7.22402,-7.591572 -1.41684,0.04867 -2.4635,-0.09364 -2.3259,-0.316292 0.236,-0.38185 7.26022,-4.601126 10.02073,-6.019209 1.90274,-0.977445 2.06226,-0.262444 0.28871,1.294117 -1.56166,1.370613 -1.56166,1.370613 0.26086,4.796795 3.4408,6.468387 7.87946,13.605473 9.5884,15.417461 3.23389,3.428947 8.14876,2.929608 11.77101,-1.195933 3.3839,-3.854052 2.97208,-6.19567 -2.83719,-16.13234 -5.94273,-10.164864 -5.86677,-10.095926 -9.58075,-8.700185 -0.37471,0.140814 -0.68128,0.01758 -0.68128,-0.273736 0,-0.60223 8.34537,-5.581973 9.35464,-5.581973 0.36273,0 -0.0234,0.71274 -0.85795,1.583877 -1.90914,1.99269 -1.88471,2.070856 3.48156,11.141302 6.07247,10.264143 6.80578,12.998327 4.62954,17.261743 -2.80297,5.491238 -11.38933,8.955636 -16.38919,6.612653 z m 70.55353,-1.862013 c -5.15939,-2.859527 -6.82296,-4.004094 -6.4249,-4.420413 0.16962,-0.177433 1.08987,-0.02765 2.04493,0.332856 1.52536,0.575761 1.8585,0.524899 2.73951,-0.418236 1.8201,-1.94845 12.07495,-20.84679 12.07495,-22.252547 0,-0.799226 -0.50089,-1.72812 -1.19342,-2.21318 -2.40885,-1.687211 -0.37973,-1.493042 3.08429,0.295142 5.56426,2.872368 10.78001,6.568342 12.13415,8.598449 2.23019,3.343444 1.49777,7.917081 -1.75443,10.95587 -1.2611,1.178349 -1.96196,1.362527 -5.18493,1.362527 -3.32566,0 -3.99713,-0.190606 -6.23966,-1.771288 -1.38209,-0.974201 -2.70712,-1.771289 -2.94449,-1.771289 -0.68181,0 -5.53168,8.960526 -5.53168,10.220249 0,0.623736 0.67446,1.637258 1.4988,2.252282 2.61862,1.953722 0.0955,1.267439 -4.30312,-1.170422 z m 17.58689,-11.465323 c 1.64844,-1.254942 3.1987,-4.444327 3.20074,-6.585066 0,-1.721324 -0.36076,-2.457843 -1.9443,-3.951328 -2.95817,-2.789912 -3.54315,-2.513964 -6.71017,3.16525 -1.53378,2.750491 -2.7887,5.185243 -2.7887,5.410552 0,0.22532 0.64619,0.917981 1.436,1.539246 1.62713,1.2799 5.37399,1.511831 6.80643,0.421346 z m -54.9771,-1.902616 c -2.47299,-0.08712 -4.49479,-0.332316 -4.49291,-0.545003 0.003,-0.212701 0.67633,-0.770349 1.49879,-1.239225 1.8332,-1.045118 2.09849,-1.560137 8.81953,-17.120438 2.97503,-6.887558 5.63466,-12.598033 5.91036,-12.689925 0.27571,-0.09192 2.63881,5.05286 5.2514,11.432808 6.74655,16.475222 7.62216,18.192638 9.6325,18.893459 0.91652,0.319498 1.52385,0.81149 1.34969,1.093312 -0.39867,0.645044 -11.63294,0.699728 -12.02918,0.05849 -0.16086,-0.260195 0.38684,-0.806034 1.217,-1.212952 1.81341,-0.888858 1.84995,-2.233518 0.16325,-6.006196 -1.1574,-2.5888 -1.1574,-2.5888 -7.0395,-2.5888 -6.59193,0 -6.08278,-0.320236 -7.99834,5.030446 -0.6279,1.753901 -0.61408,2.146577 0.10059,2.861308 0.45564,0.45563 1.30141,0.828424 1.87951,0.828424 1.01642,0 1.47435,0.851304 0.64236,1.194102 -0.22482,0.09266 -2.4321,0.0972 -4.90508,0.0098 z m 15.12404,-12.308456 c 0,-0.322116 -3.81827,-9.708718 -4.29804,-10.566006 -0.30825,-0.550743 -0.75763,-0.01758 -1.57245,1.865626 -0.62748,1.45023 -1.76752,4.046981 -2.53341,5.770576 -1.39256,3.133816 -1.39256,3.133816 3.50568,3.133816 2.694,0 4.89822,-0.0918 4.89822,-0.204012 z"
       id="path1" /></g></svg>
